<?xml version="1.0" encoding="UTF-8"?>
<svg xmlns="http://www.w3.org/2000/svg" viewBox="0 0 518.63 358.67">
  <g style="isolation: isolate;">
    <g id="Capa_1" data-name="Capa 1">
      <path d="M78.27,284.42c-9.97,0-19.06-1.4-27.28-4.21-8.22-2.81-15.3-6.87-21.23-12.19-5.93-5.32-10.51-11.89-13.75-19.73-3.24-7.83-4.86-16.77-4.86-26.83s1.59-18.74,4.78-26.57c3.19-7.83,7.72-14.43,13.6-19.79,5.88-5.36,12.95-9.46,21.23-12.31,8.27-2.85,17.44-4.27,27.5-4.27,7.67,0,14.8.84,21.37,2.51,6.58,1.68,12.38,4.17,17.41,7.48,5.03,3.31,9.17,7.39,12.41,12.25,3.24,4.86,5.36,10.43,6.35,16.71h-26.16c-.2-3.6-1.15-6.78-2.84-9.55-1.7-2.76-3.94-5.07-6.73-6.91-2.79-1.84-6.05-3.25-9.79-4.21-3.74-.96-7.75-1.45-12.03-1.45-6.08,0-11.61.96-16.59,2.89-4.98,1.93-9.27,4.82-12.85,8.67-3.59,3.85-6.38,8.67-8.37,14.45-1.99,5.78-2.99,12.48-2.99,20.1s1,14.32,2.99,20.1c1.99,5.78,4.78,10.6,8.37,14.45,3.59,3.85,7.87,6.74,12.85,8.67,4.98,1.93,10.51,2.89,16.59,2.89,3.98,0,7.85-.46,11.58-1.38,3.74-.92,7.03-2.28,9.87-4.08,2.84-1.8,5.16-4.06,6.95-6.79,1.79-2.72,2.79-5.92,2.99-9.61h26.16c-1,6.37-3.14,11.96-6.43,16.77-3.29,4.82-7.45,8.86-12.48,12.12-5.03,3.27-10.84,5.72-17.41,7.35-6.58,1.63-13.65,2.45-21.23,2.45Z" style="fill: #1d1d1b;"/>
      <path d="M409.58,250.75c2.28,7.98,10.27,11.96,23.97,11.96,9.24,0,16.49-2.3,21.77-6.89,5.27-4.59,8.4-11.76,9.38-21.51-5.22,2.82-10.63,4.94-16.22,6.35-5.6,1.41-11.6,2.11-18.02,2.11-10.65,0-20.08-1.43-28.29-4.29-8.21-2.86-15.08-6.91-20.62-12.15-5.54-5.24-9.76-11.54-12.64-18.91-2.88-7.37-4.32-15.53-4.32-24.47,0-9.51,1.71-18.03,5.14-25.56,3.42-7.53,8.15-13.94,14.19-19.22,6.03-5.28,13.15-9.32,21.36-12.15,8.21-2.82,17.04-4.23,26.49-4.23,6.2,0,12.06.53,17.61,1.57,5.54,1.05,10.76,2.58,15.65,4.59v-3.38h38.15v106.35c0,37.3-22.94,55.96-68.8,55.96-9.35,0-17.8-.83-25.35-2.48-7.56-1.65-14.13-4.03-19.73-7.13-5.6-3.1-10.08-6.89-13.45-11.36-3.37-4.47-5.44-9.53-6.2-15.17h39.95ZM465.02,156.24c-9.89-6.85-20.44-10.27-31.63-10.27-8.91,0-16.03,3.06-21.36,9.19-5.33,6.12-7.99,15.39-7.99,27.8,0,11.76,2.5,20.65,7.5,26.65,5,6,11.96,9,20.87,9,11.41,0,22.28-5.03,32.61-15.11v-47.25Z" style="fill: #1d1d1b;"/>
      <g>
        <path d="M156.03,266.43h-9.47v-60.85h9.47v60.85Z" style="fill: #1d1d1b;"/>
        <path d="M187.19,221.3c3.85,0,7.32.52,10.42,1.57,3.1,1.04,5.74,2.56,7.93,4.54s3.87,4.4,5.04,7.26c1.18,2.86,1.76,6.1,1.76,9.73s-.6,6.92-1.79,9.77c-1.2,2.86-2.9,5.28-5.1,7.26-2.2,1.98-4.85,3.49-7.93,4.52s-6.53,1.54-10.34,1.54-7.14-.52-10.23-1.54-5.73-2.52-7.96-4.47c-2.22-1.95-3.94-4.36-5.15-7.24-1.21-2.87-1.82-6.15-1.82-9.84s.6-6.88,1.79-9.75c1.2-2.87,2.89-5.29,5.1-7.26,2.2-1.97,4.86-3.47,7.96-4.52,3.1-1.04,6.54-1.57,10.31-1.57ZM187.19,261.32c2.24,0,4.29-.35,6.16-1.06,1.87-.71,3.47-1.77,4.82-3.18,1.34-1.41,2.39-3.18,3.14-5.3.75-2.12,1.12-4.58,1.12-7.38s-.37-5.25-1.12-7.38c-.75-2.12-1.79-3.89-3.14-5.3-1.34-1.41-2.95-2.47-4.82-3.18-1.87-.71-3.92-1.06-6.16-1.06s-4.35.35-6.22,1.06c-1.87.71-3.47,1.77-4.82,3.18-1.34,1.41-2.39,3.18-3.14,5.3-.75,2.12-1.12,4.58-1.12,7.38s.37,5.25,1.12,7.38c.75,2.12,1.79,3.89,3.14,5.3,1.34,1.41,2.95,2.47,4.82,3.18,1.87.71,3.94,1.06,6.22,1.06Z" style="fill: #1d1d1b;"/>
        <path d="M252.35,260.86c-4.78,4.43-10.14,6.64-16.08,6.64-12.1,0-18.15-5.42-18.15-16.27v-28.81h9.64v28.4c0,1.84.19,3.4.56,4.68.37,1.28.96,2.32,1.76,3.13.8.81,1.83,1.41,3.08,1.77,1.25.37,2.75.55,4.51.55,5.34,0,10.23-2.35,14.68-7.05v-31.49h9.47v44.02h-9.47v-5.58Z" style="fill: #1d1d1b;"/>
        <path d="M305.25,261.22c-4.33,4.18-9.43,6.27-15.29,6.27-3.59,0-6.75-.55-9.5-1.64s-5.06-2.63-6.95-4.61c-1.89-1.98-3.31-4.37-4.26-7.17-.95-2.8-1.43-5.9-1.43-9.31,0-3.63.58-6.89,1.74-9.8,1.16-2.9,2.75-5.37,4.79-7.4,2.04-2.03,4.43-3.58,7.17-4.66,2.75-1.08,5.72-1.61,8.94-1.61,2.91,0,5.59.38,8.04,1.13s4.7,1.87,6.75,3.34v-20.19h9.47v60.85h-9.47v-5.21ZM305.25,253.71v-20.88c-4.26-3.56-8.98-5.35-14.17-5.35-4.07,0-7.32,1.44-9.75,4.31-2.43,2.87-3.64,7.2-3.64,12.98,0,5.44,1.15,9.56,3.45,12.35,2.3,2.8,5.48,4.19,9.55,4.19,2.65,0,5.19-.62,7.62-1.87,2.43-1.24,4.74-3.16,6.95-5.74Z" style="fill: #1d1d1b;"/>
      </g>
      <g>
        <path d="M290.15,187.14h-13.26v-60.85h13.26v60.85Z" style="fill: #1d1d1b;"/>
        <path d="M309.82,148.7c3.2-2.24,6.63-3.92,10.29-5.02,3.66-1.11,7.47-1.66,11.43-1.66,16.46,0,24.68,5.44,24.68,16.32v28.81h-13.03v-28.44c0-1.81-.25-3.37-.76-4.66-.51-1.29-1.31-2.34-2.4-3.16-1.09-.81-2.49-1.41-4.19-1.77-1.7-.37-3.75-.55-6.13-.55-6.6,0-13.23,2.34-19.88,7.01v31.58h-12.88v-44.02h12.88v5.58Z" style="fill: #1d1d1b;"/>
      </g>
      <g>
        <path d="M186.84,336.88c-1.86,0-3.48-.22-4.87-.66-1.39-.44-2.54-1.05-3.47-1.84-.92-.79-1.62-1.73-2.1-2.82s-.74-2.29-.78-3.61h3.35c.09,1,.36,1.86.8,2.59.44.73,1,1.33,1.68,1.81s1.47.83,2.36,1.06c.89.23,1.84.34,2.85.34s1.88-.1,2.68-.31,1.49-.5,2.06-.9,1.01-.86,1.33-1.42c.31-.55.47-1.17.47-1.86s-.14-1.33-.43-1.83-.75-.94-1.39-1.32c-.64-.37-1.49-.71-2.53-1.01-1.04-.3-2.33-.61-3.85-.93-1.47-.33-2.75-.71-3.82-1.15-1.07-.43-1.95-.94-2.63-1.51s-1.19-1.24-1.52-1.98c-.33-.74-.5-1.61-.5-2.59,0-1.05.23-2.02.68-2.92.45-.9,1.09-1.67,1.91-2.31.82-.64,1.81-1.15,2.96-1.51s2.42-.55,3.82-.55c1.47,0,2.82.18,4.03.54s2.26.88,3.15,1.56c.88.68,1.57,1.51,2.07,2.49.5.98.77,2.08.81,3.32h-3.37c-.36-3.17-2.54-4.76-6.54-4.76-1.95,0-3.46.36-4.51,1.09-1.06.72-1.58,1.7-1.58,2.94,0,.56.1,1.03.29,1.42s.52.74,1,1.04c.47.3,1.09.57,1.86.82.77.25,1.73.49,2.89.73.78.16,1.59.33,2.42.52.83.19,1.64.42,2.43.69.79.27,1.53.6,2.23.99.7.39,1.31.85,1.83,1.39.52.54.94,1.19,1.25,1.93.31.74.46,1.61.46,2.61,0,1.16-.24,2.22-.73,3.19-.49.97-1.16,1.8-2.03,2.5-.87.7-1.9,1.24-3.1,1.63s-2.5.59-3.9.59Z" style="stroke: #000; stroke-miterlimit: 10;"/>
        <path d="M206.94,323.42c.91,0,1.74.15,2.47.45.73.3,1.36.74,1.88,1.31s.92,1.27,1.2,2.09c.28.82.42,1.76.42,2.8s-.14,1.99-.42,2.82c-.28.82-.69,1.52-1.21,2.09s-1.15,1.01-1.88,1.3c-.73.3-1.55.45-2.45.45s-1.69-.15-2.42-.45c-.73-.3-1.36-.73-1.89-1.29-.53-.56-.93-1.26-1.22-2.08-.29-.83-.43-1.77-.43-2.84s.14-1.98.42-2.81c.28-.83.69-1.53,1.21-2.09s1.15-1,1.89-1.3c.73-.3,1.55-.45,2.44-.45ZM206.94,334.95c.53,0,1.02-.1,1.46-.31.44-.2.82-.51,1.14-.92s.57-.92.74-1.53.27-1.32.27-2.12-.09-1.51-.27-2.12c-.18-.61-.42-1.12-.74-1.53s-.7-.71-1.14-.92c-.44-.2-.93-.31-1.46-.31s-1.03.1-1.47.31c-.44.2-.82.51-1.14.92s-.57.92-.74,1.53c-.18.61-.27,1.32-.27,2.12s.09,1.51.27,2.12.43,1.12.74,1.53.7.71,1.14.92c.44.2.93.31,1.47.31Z" style="stroke: #000; stroke-miterlimit: 10;"/>
        <path d="M218.76,336.43h-2.25v-17.53h2.25v17.53Z" style="stroke: #000; stroke-miterlimit: 10;"/>
        <path d="M231.23,334.82c-1.13,1.28-2.4,1.91-3.81,1.91-2.87,0-4.3-1.56-4.3-4.69v-8.3h2.28v8.18c0,.53.04.98.13,1.35s.23.67.42.9.43.4.73.51c.3.11.65.16,1.07.16,1.27,0,2.43-.68,3.48-2.03v-9.07h2.24v12.68h-2.24v-1.61Z" style="stroke: #000; stroke-miterlimit: 10;"/>
        <path d="M243.04,336.73c-.89,0-1.69-.15-2.42-.45-.73-.3-1.36-.73-1.89-1.29-.53-.56-.93-1.26-1.22-2.08-.29-.83-.43-1.77-.43-2.84s.14-1.98.42-2.81c.28-.83.69-1.53,1.21-2.09s1.15-1,1.89-1.3c.73-.3,1.55-.45,2.44-.45.68,0,1.31.09,1.9.27.58.18,1.1.44,1.55.79s.81.78,1.1,1.29.48,1.1.56,1.77h-2.32c-.02-.38-.1-.72-.25-1.01-.15-.29-.35-.54-.6-.73-.25-.19-.54-.34-.87-.44s-.69-.15-1.07-.15c-.54,0-1.03.1-1.47.31-.44.2-.82.51-1.14.92s-.57.92-.74,1.53c-.18.61-.27,1.32-.27,2.12s.09,1.51.27,2.12.43,1.12.74,1.53.7.71,1.14.92c.44.2.93.31,1.47.31.35,0,.7-.05,1.03-.15s.62-.24.88-.43.46-.43.62-.72c.16-.29.25-.63.27-1.02h2.32c-.09.67-.28,1.26-.57,1.77-.29.51-.66.94-1.11,1.28s-.96.6-1.55.78c-.58.17-1.21.26-1.89.26Z" style="stroke: #000; stroke-miterlimit: 10;"/>
        <path d="M253.49,321.34h-2.25v-2.44h2.25v2.44ZM253.49,336.43h-2.25v-12.68h2.25v12.68Z" style="stroke: #000; stroke-miterlimit: 10;"/>
        <path d="M263.05,323.42c.91,0,1.74.15,2.47.45.73.3,1.36.74,1.88,1.31.52.57.92,1.27,1.2,2.09.28.82.42,1.76.42,2.8s-.14,1.99-.42,2.82c-.28.82-.69,1.52-1.21,2.09s-1.15,1.01-1.88,1.3c-.73.3-1.55.45-2.45.45s-1.69-.15-2.42-.45c-.73-.3-1.36-.73-1.89-1.29-.53-.56-.93-1.26-1.22-2.08-.29-.83-.43-1.77-.43-2.84s.14-1.98.42-2.81c.28-.83.69-1.53,1.21-2.09s1.15-1,1.89-1.3c.74-.3,1.55-.45,2.44-.45ZM263.05,334.95c.53,0,1.02-.1,1.46-.31.44-.2.82-.51,1.14-.92.32-.41.57-.92.74-1.53.18-.61.27-1.32.27-2.12s-.09-1.51-.27-2.12c-.18-.61-.42-1.12-.74-1.53-.32-.41-.7-.71-1.14-.92-.44-.2-.93-.31-1.46-.31s-1.03.1-1.47.31c-.44.2-.82.51-1.14.92-.32.41-.57.92-.74,1.53-.18.61-.27,1.32-.27,2.12s.09,1.51.27,2.12c.18.61.42,1.12.74,1.53.32.41.7.71,1.14.92.44.2.93.31,1.47.31Z" style="stroke: #000; stroke-miterlimit: 10;"/>
        <path d="M274.87,325.35c.56-.65,1.16-1.13,1.79-1.45.64-.32,1.3-.48,1.99-.48,2.87,0,4.3,1.57,4.3,4.7v8.3h-2.27v-8.2c0-.52-.04-.97-.13-1.34-.09-.37-.23-.68-.42-.91-.19-.23-.43-.41-.73-.51s-.65-.16-1.07-.16c-1.15,0-2.31.67-3.47,2.02v9.1h-2.24v-12.68h2.24v1.61Z" style="stroke: #000; stroke-miterlimit: 10;"/>
        <path d="M291.87,336.73c-3.45,0-5.27-1.36-5.46-4.09h2.27c0,1.54,1.06,2.31,3.16,2.31.47,0,.88-.05,1.24-.15s.66-.24.9-.42.42-.39.54-.64.19-.51.19-.8-.05-.54-.14-.73c-.09-.19-.27-.35-.54-.49-.27-.14-.64-.28-1.12-.42-.48-.14-1.1-.31-1.87-.51-.75-.19-1.4-.37-1.95-.56-.54-.19-.99-.41-1.34-.68-.35-.27-.61-.59-.78-.98s-.25-.88-.25-1.47c0-.52.11-1.01.33-1.46.22-.45.54-.83.95-1.16.41-.33.91-.58,1.49-.77.58-.19,1.24-.28,1.95-.28,3.34,0,5.03,1.19,5.09,3.56h-2.23c-.08-1.19-.97-1.78-2.68-1.78-.38,0-.73.04-1.06.11s-.6.18-.84.33-.42.32-.56.52-.2.45-.2.72c0,.25.03.45.09.61.06.16.21.31.45.45s.58.27,1.04.41c.46.13,1.09.3,1.89.49.77.19,1.44.38,2.01.58.57.2,1.04.44,1.41.72s.66.63.84,1.04.27.92.27,1.53c0,.58-.12,1.11-.36,1.59-.24.49-.58.91-1.02,1.28-.44.36-.97.65-1.6.85s-1.33.31-2.11.31Z" style="stroke: #000; stroke-miterlimit: 10;"/>
        <path d="M341.76,310.13l-7.31,26.3h-3.33l-6.34-22.87-6.3,22.87h-3.35l-7.27-26.3h3.67l5.24,21.44,5.92-21.44h4.22l5.9,21.44,5.28-21.44h3.67Z" style="stroke: #000; stroke-miterlimit: 10;"/>
        <path d="M350.8,336.73c-.92,0-1.76-.15-2.52-.45-.76-.3-1.42-.73-1.96-1.3-.54-.57-.97-1.27-1.27-2.09s-.45-1.76-.45-2.82.15-1.96.44-2.78c.29-.82.7-1.52,1.22-2.09.52-.58,1.15-1.02,1.89-1.32.73-.31,1.54-.46,2.42-.46s1.74.15,2.47.45c.74.3,1.36.74,1.88,1.31.52.57.92,1.27,1.2,2.09.28.82.42,1.76.42,2.8v.54h-9.56c.05.74.18,1.37.39,1.91.21.54.48.99.82,1.35.34.36.73.63,1.18.8.44.18.92.27,1.45.27.37,0,.74-.05,1.12-.15.37-.1.71-.25,1-.45.3-.19.54-.44.72-.72.19-.29.28-.62.29-.99h2.36c-.1.66-.3,1.24-.62,1.75-.31.51-.71.94-1.2,1.28-.48.34-1.04.61-1.67.79-.63.18-1.3.27-2.02.27ZM354.13,328.84c-.18-1.2-.59-2.11-1.23-2.72-.64-.61-1.42-.92-2.34-.92-.45,0-.88.08-1.27.23-.4.15-.75.38-1.06.68-.31.3-.57.68-.78,1.14s-.36.99-.45,1.6h7.15Z" style="stroke: #000; stroke-miterlimit: 10;"/>
        <path d="M362.38,325.24c1-1.21,2.21-1.82,3.63-1.82.83,0,1.57.16,2.22.47.65.31,1.2.76,1.65,1.33.45.57.79,1.26,1.02,2.07.23.81.35,1.7.35,2.68s-.14,1.96-.41,2.79c-.27.83-.65,1.54-1.13,2.13-.48.59-1.04,1.04-1.7,1.36-.66.32-1.37.48-2.14.48-.69,0-1.32-.1-1.9-.31-.58-.21-1.1-.53-1.58-.98v.98h-2.24v-17.53h2.24v6.35ZM362.38,333.41c.98,1.03,2.1,1.54,3.35,1.54.96,0,1.73-.42,2.3-1.25.57-.84.86-2.08.86-3.73,0-1.56-.27-2.74-.81-3.55-.54-.81-1.29-1.22-2.26-1.22-1.26,0-2.4.73-3.44,2.18v6.03Z" style="stroke: #000; stroke-miterlimit: 10;"/>
      </g>
    </g>
    <g id="Capa_3" data-name="Capa 3">
      <g style="mix-blend-mode: multiply;">
        <path d="M94.57,155.83l.65-3.54c.23-1.18.45-2.34.85-3.54l1.08-3.62c.38-1.21.88-2.34,1.33-3.53.44-1.19.95-2.35,1.56-3.46l1.78-3.4c1.38-2.14,2.68-4.41,4.33-6.43,1.53-2.13,3.32-4.06,5.15-5.98l2.92-2.69c.97-.92,2.05-1.68,3.08-2.52.53-.41,1.05-.83,1.58-1.23l1.65-1.13c1.11-.73,2.21-1.52,3.38-2.15,1.15-.66,2.31-1.35,3.49-1.97l3.58-1.77c2.42-1.09,4.88-2.14,7.39-2.97l1.88-.65,1.89-.57c1.27-.38,2.54-.77,3.81-1.07,2.55-.68,5.12-1.23,7.71-1.69l3.88-.61,3.89-.48,3.9-.36,3.9-.24c2.6-.1,5.21-.12,7.81-.06,2.61.05,5.22.19,7.85.38,1.32.11,2.64.23,3.98.38l2.04.25c.74.1,1.3.18,2.31.38l-16.85,9.56.78-2.71c.25-.79.49-1.6.74-2.37.5-1.56,1.03-3.08,1.58-4.6,1.09-3.03,2.3-5.98,3.55-8.92,2.56-5.85,5.57-11.51,8.89-17.05,3.32-5.54,7.06-10.88,11.28-15.94,4.21-5.06,8.79-9.92,13.86-14.35,5.06-4.44,10.64-8.4,16.51-11.95l4.47-2.57c1.54-.78,3.09-1.52,4.65-2.27,1.54-.78,3.16-1.39,4.76-2.05l2.41-.97,1.21-.48,1.23-.41,4.93-1.61c1.64-.54,3.33-.89,5-1.33,3.33-.92,6.73-1.45,10.11-2.03,1.69-.29,3.4-.38,5.09-.56l2.55-.24c.85-.09,1.7-.15,2.54-.16l5.07-.14c.84-.01,1.7-.07,2.53-.03l2.51.09,5.02.21.63.03.77.07.27.03,1.08.11,2.16.22,2.15.24,1.08.12.55.07.65.1,5.17.85,2.58.44,2.43.55,4.84,1.12c1.61.41,3.21.91,4.81,1.37,1.6.46,3.2.92,4.77,1.51,1.58.56,3.15,1.15,4.71,1.73,1.55.63,3.09,1.33,4.63,1.99l2.3,1.02,2.25,1.14c1.49.78,3.01,1.49,4.48,2.33,5.91,3.23,11.46,7.09,16.64,11.34,5.18,4.25,9.99,8.92,14.22,14.01,4.25,5.07,8.06,10.44,11.39,16.03,3.27,5.63,6.1,11.45,8.44,17.45,1.19,2.99,2.17,6.07,3.09,9.16.45,1.55.88,3.12,1.27,4.73.2.8.38,1.61.56,2.44l.26,1.27.29,1.5-18.13-6.09.29-.22.19-.14.38-.26.69-.45c.44-.28.89-.55,1.33-.8.88-.51,1.74-.97,2.61-1.41,1.74-.89,3.49-1.68,5.26-2.39,1.77-.73,3.58-1.34,5.39-1.92.91-.27,1.83-.53,2.75-.78.93-.22,1.85-.44,2.78-.63.94-.17,1.87-.36,2.81-.5.95-.13,1.88-.27,2.83-.37l2.84-.24,2.85-.1c.95,0,1.9.03,2.84.05.94.03,1.89.15,2.83.22.94.06,1.87.23,2.8.37l1.39.21,1.38.29c1.84.35,3.62.89,5.39,1.42,1.74.65,3.46,1.27,5.1,2.07,1.67.71,3.23,1.64,4.8,2.49l2.26,1.43,1.11.72,1.06.78,2.11,1.56c.67.56,1.34,1.11,1.98,1.69,1.32,1.11,2.49,2.39,3.7,3.59,1.19,1.21,2.26,2.54,3.37,3.79,1.06,1.3,2.02,2.69,3.01,4.01l-1.4,1.43c-1.18-1.07-2.35-2.17-3.54-3.22-1.25-.99-2.44-2.05-3.74-2.98-1.3-.91-2.56-1.9-3.93-2.7l-2.02-1.26-2.09-1.13-1.04-.56-1.08-.49-2.16-.98c-1.48-.54-2.94-1.17-4.46-1.57-1.5-.5-3.04-.81-4.57-1.17-1.55-.25-3.1-.54-4.67-.65l-1.17-.11-1.18-.04c-.79-.02-1.57-.08-2.35-.03-.79.03-1.57.02-2.35.09l-2.35.21-2.33.33-2.31.45c-.77.17-1.53.37-2.29.55-.76.2-1.51.44-2.26.66l-2.24.75-2.2.85c-1.45.61-2.89,1.24-4.29,1.97-1.41.71-2.78,1.49-4.11,2.32-1.32.82-2.66,1.73-3.8,2.65l-1.88,1.51-.62-2.35c-1.42-5.37-3.57-10.76-5.99-15.88-2.43-5.15-5.29-10.1-8.48-14.81-6.4-9.4-14.21-17.88-23.31-24.67-4.55-3.39-9.35-6.45-14.41-9.02-1.25-.67-2.56-1.22-3.84-1.84l-1.93-.9-1.98-.79c-1.32-.52-2.63-1.07-3.96-1.56l-4.04-1.34c-1.34-.48-2.71-.83-4.09-1.2-1.37-.36-2.74-.76-4.12-1.09l-4.18-.87-2.09-.43-2.09-.31-4.19-.63c-1.4-.2-2.87-.28-4.3-.43l-2.16-.2-1.08-.1-.49-.04-.53-.02-4.25-.13-2.13-.07c-.71-.02-1.42.04-2.12.05l-4.25.15c-.71,0-1.41.07-2.12.15l-2.11.22c-1.4.17-2.82.24-4.21.5-2.78.51-5.59.86-8.32,1.62-1.37.36-2.76.61-4.11,1.05l-4.04,1.28-1.01.32-.99.39-1.97.78c-1.31.52-2.65,1-3.91,1.64l-3.84,1.81-3.72,2.04c-4.89,2.84-9.61,6.01-13.95,9.67-4.35,3.65-8.42,7.62-12.2,11.88-3.79,4.25-7.22,8.82-10.4,13.55-3.17,4.74-6.05,9.68-8.63,14.77-2.55,5.09-4.9,10.37-6.68,15.67l-.49,1.46-1.48-.35c-2.19-.51-4.52-.91-6.8-1.27-2.3-.33-4.61-.62-6.93-.83-2.32-.22-4.64-.35-6.97-.45l-3.49-.07-3.49.03-3.49.14-3.48.25c-2.31.23-4.62.49-6.91.87-1.15.16-2.28.4-3.42.63l-1.7.34-1.69.42c-2.26.52-4.46,1.23-6.67,1.92l-3.26,1.19c-1.07.42-2.12.91-3.18,1.37-1.07.43-2.07,1.01-3.1,1.53l-1.54.79c-.5.29-.99.6-1.48.89-.97.62-2,1.15-2.92,1.85l-2.81,2.01c-1.76,1.48-3.59,2.91-5.17,4.59-1.71,1.56-3.12,3.4-4.64,5.14l-2.03,2.81c-.33.48-.7.92-.99,1.42l-.89,1.49c-.58,1-1.23,1.97-1.76,3l-1.53,3.1c-.54,1.01-.97,2.11-1.4,3.21l-1.31,3.29-1.86-.73Z" style="fill: #638cc8;"/>
      </g>
      <g style="mix-blend-mode: multiply;">
        <path d="M157.18,304.6s-.11.55-.31,1.58c-.08.52-.36,1.11-.58,1.85-.1.37-.32.72-.5,1.12-.21.38-.35.84-.64,1.24-.97,1.72-2.53,3.61-4.68,5.4-2.15,1.79-4.91,3.47-8.2,4.8-.41.18-.83.34-1.26.47-.43.15-.87.3-1.3.45-.88.31-1.81.5-2.75.77-.95.23-1.92.4-2.92.61-1,.14-2.03.27-3.08.38-.53.03-1.06.05-1.59.08l-.81.04-.41.02c.1.02-.19-.02-.18-.02h-.14s-.19,0-.19,0c-.5,0-1-.01-1.51-.02h-.76c-.26-.01-.57-.06-.86-.08-1.17-.12-2.42-.23-3.54-.46-.58-.11-1.17-.21-1.75-.32-.58-.16-1.16-.31-1.75-.47-1.18-.29-2.33-.77-3.52-1.19-.58-.25-1.15-.53-1.73-.8-.58-.27-1.16-.55-1.73-.9-2.31-1.24-4.48-2.96-6.46-5.02-1.99-2.05-3.69-4.65-4.82-7.63-1.14-2.98-1.6-6.41-1.18-9.76l.12-.69.04-.21.09-.41.18-.82c.02-.19.21-.78.35-1.21.15-.47.31-.93.48-1.38.34-.99.73-1.6,1.12-2.35.2-.36.39-.73.6-1.07l.7-.98c1.87-2.6,4.19-4.66,6.65-6.12,2.45-1.47,5-2.56,7.55-3.16.63-.18,1.27-.31,1.9-.41.63-.11,1.26-.24,1.88-.32,1.26-.11,2.49-.26,3.71-.23h1.81c.6.05,1.19.1,1.78.15,1.17.07,2.31.29,3.43.48,1.12.17,2.2.5,3.26.74l.2.05.1.02h.05s.27.06.17.05l.35.12.7.24c.47.16.93.32,1.39.47,1.01.39,2.03.79,2.98,1.2.91.46,1.81.88,2.66,1.36.84.5,1.68.93,2.45,1.46.76.55,1.54,1,2.23,1.57,2.83,2.15,5.05,4.5,6.66,6.79,1.6,2.3,2.62,4.53,3.1,6.44.17.46.19.94.29,1.37.07.43.19.83.18,1.21.02.76.13,1.41.07,1.93-.07,1.05-.11,1.61-.11,1.61ZM157.18,304.6s.03-.56.09-1.61c.05-.52-.07-1.17-.13-1.92-.01-.38-.15-.77-.24-1.2-.12-.42-.17-.88-.37-1.33-.59-1.86-1.84-3.92-3.68-5.85-1.85-1.92-4.37-3.65-7.35-4.88-1.48-.64-3.1-1.08-4.76-1.46-.84-.17-1.71-.26-2.57-.4-.84-.06-1.69-.11-2.55-.17-.49,0-.98-.01-1.47-.02h-.74s-.37-.01-.37-.01c-.13-.02.12.02.08.02h-.04s-.08,0-.08,0h-.17c-.91.11-1.81.11-2.71.27-.9.15-1.8.25-2.69.49-.44.1-.88.21-1.33.32-.43.13-.86.26-1.3.39-3.45,1.05-6.63,2.79-8.97,4.83-1.2,1-2.08,2.14-2.72,3.22l-.25.4-.18.42c-.1.25-.32.6-.29.69-.01.07-.04.13-.08.2-.04.09-.08.02-.14.39l-.16.82-.08.41-.04.21-.02.1v.05c.02-.2-.1.52.06-.43-.13,1.11-.04,2.22.27,3.45.33,1.22.88,2.55,1.77,3.84,1.72,2.59,4.34,5.11,7.4,7.03.39.24.77.48,1.15.72.4.22.8.44,1.2.65.82.47,1.57.78,2.36,1.16.21.09.37.19.61.27l.72.24c.48.16.96.32,1.43.48l.18.06.09.03.04.02s-.21-.03-.08,0l.33.09.65.18c.44.12.87.24,1.3.36,3.48.84,6.98,1.04,10.18.62,3.2-.4,6.08-1.42,8.37-2.79,2.28-1.38,4.03-3.05,5.09-4.68.31-.38.49-.81.71-1.18.2-.39.43-.73.54-1.09.25-.71.54-1.3.63-1.82.22-1.03.34-1.57.34-1.57Z" style="fill: #638cc8;"/>
      </g>
      <g style="mix-blend-mode: multiply;">
        <path d="M110.85,331.47s-.08.41-.23,1.18c-.08.38-.28.83-.45,1.37-.11.26-.26.53-.4.83-.14.3-.3.61-.52.91-.78,1.25-1.99,2.64-3.67,3.92-1.67,1.28-3.78,2.5-6.27,3.51-2.49.99-5.37,1.83-8.56,2.24-.4.04-.8.08-1.21.12l-.62.06-.31.03c.09.02-.17-.02-.15-.01h-.04s-.07,0-.07,0h-.14c-.38.03-.75.05-1.13.07-.38.02-.74.05-1.22.02-.89-.04-1.88-.06-2.75-.18-.9-.09-1.81-.2-2.72-.41-3.66-.72-7.51-2.25-10.98-5.22-1.71-1.52-3.31-3.45-4.47-5.9-.59-1.21-1.01-2.59-1.27-4.01-.1-.73-.21-1.46-.22-2.2l.03-1.12.03-.56.02-.28v-.14s.01-.07.01-.07c.04-.26-.08.48.09-.6l.26-1.22c0-.05.08-.31.14-.52l.2-.64c.14-.43.3-.85.47-1.27.17-.46.34-.73.51-1.05l.53-.93c.34-.64.79-1.13,1.21-1.68,1.71-2.1,3.75-3.57,5.77-4.64,4.09-2.03,8.21-2.58,11.94-2.38.47.03.93.04,1.39.08.45.06.91.12,1.36.19.9.1,1.76.33,2.61.5.85.18,1.66.45,2.46.67l.15.04.07.02h.04s.24.05.15.04l.26.1.52.2c.35.13.69.27,1.03.4.74.3,1.53.65,2.25.96.68.36,1.35.71,2.01,1.06.64.38,1.27.74,1.86,1.11.58.4,1.15.79,1.7,1.17,2.16,1.6,3.9,3.3,5.21,4.96,1.32,1.65,2.14,3.3,2.59,4.7.14.34.21.68.28,1.01.07.32.15.62.19.9.03.57.11,1.05.1,1.44-.04.78-.07,1.2-.07,1.2ZM110.85,331.47s.02-.42.04-1.2c0-.39-.08-.87-.15-1.43-.05-.28-.16-.57-.24-.88-.08-.31-.19-.64-.36-.96-.56-1.33-1.6-2.8-3.13-4.06-1.52-1.27-3.52-2.35-5.81-3.03-.57-.18-1.18-.3-1.77-.44-.61-.1-1.23-.2-1.86-.3-.63-.04-1.28-.08-1.93-.12-.62.01-1.25.03-1.89.04-.37.02-.74.04-1.11.06l-.56.03h-.28c-.11,0,.12.04.08.03h-.03s-.06.01-.06.01l-.13.02c-.67.11-1.33.17-1.99.32-1.32.27-2.62.64-3.86,1.09-1.25.43-2.41.98-3.49,1.57-1.07.6-2.01,1.28-2.8,1.93-.76.68-1.3,1.36-1.61,1.9-.05.14-.18.26-.19.38-.02.06-.04.12-.07.17-.02.05-.08.13-.03.08.03-.02.04-.06.04-.09,0-.02,0-.04-.01-.06,0-.02-.02-.08-.04.08l-.24,1.23c.17-1.06.05-.29.09-.52h0s0,.03,0,.03v.03s0,.07,0,.07c0,.04-.01.09-.03.13,0,.09.03.19,0,.29.03.21.03.46.13.77.17.61.53,1.4,1.09,2.26.61.83,1.36,1.72,2.25,2.57.91.83,1.91,1.66,3.01,2.38,1.08.75,2.3,1.42,3.37,1.98.25.15.64.29.99.42.36.14.71.27,1.06.41l.13.05.07.03h.03s-.2-.01-.08,0l.24.08.47.16c.32.11.64.21.95.32.64.18,1.27.33,1.91.5.64.12,1.28.24,1.91.35.64.06,1.26.11,1.88.16.61.01,1.23.03,1.83,0,2.4-.1,4.59-.66,6.38-1.52,1.79-.85,3.17-2.02,4.03-3.17.24-.27.43-.56.58-.84.16-.28.33-.54.45-.79.2-.52.41-.97.5-1.35.16-.77.25-1.17.25-1.17Z" style="fill: #638cc8;"/>
      </g>
      <g style="mix-blend-mode: multiply;">
        <path d="M386.36,290.69l-1.71.63c-.29.1-.56.21-.87.28l-.98.17c-.65.09-1.38.25-2.03.26l-2.01.05c-.68,0-1.33-.12-2.01-.19-.33-.04-.68-.08-1.01-.14l-.99-.22c-.65-.17-1.36-.27-1.98-.51l-1.93-.67-1.86-.81c-.63-.27-1.21-.6-1.81-.92-.61-.32-1.17-.67-1.74-1.03-.58-.35-1.15-.72-1.69-1.11-1.12-.76-2.19-1.58-3.21-2.47-.52-.43-1.02-.91-1.53-1.38-.52-.51-.96-.91-1.57-1.63l10.06.52-1.06,1.4c-.32.42-.62.77-.94,1.14-.63.77-1.28,1.41-1.93,2.1-.65.71-1.33,1.29-2.01,1.94l-1.03.95-1.06.88c-.71.58-1.43,1.17-2.17,1.72l-2.25,1.57c-.75.54-1.51,1.05-2.3,1.5l-2.36,1.4c-.79.48-1.6.88-2.42,1.27l-2.46,1.19-1.24.59-1.26.5-2.53,1c-.85.3-1.7.68-2.56.92l-2.59.77c-1.73.5-3.47,1.07-5.23,1.4-1.75.38-3.52.71-5.29,1.06-1.76.25-3.53.45-5.3.67l-2.66.32c-.89.08-1.77.07-2.65.12l-5.31.16c-.89.05-1.77.02-2.64-.02l-2.63-.1-5.26-.3-5.17-.64c-1.72-.22-3.45-.43-5.17-.68l4.7-.02-8.28,1.57c-2.76.53-5.52,1.06-8.29,1.51-2.76.51-5.57.83-8.36,1.23-2.79.41-5.6.71-8.4,1.05-2.79.36-5.62.6-8.45.81l-8.48.55c-2.81.24-5.69.17-8.53.22l-4.27.04c-1.42,0-2.83.07-4.27-.03l-8.58-.41c-2.84-.11-5.72-.5-8.58-.79-2.86-.29-5.7-.66-8.56-1.2-1.43-.25-2.85-.48-4.26-.77l-2.12-.41-2.12-.52c-1.41-.35-2.82-.68-4.22-1.07-.7-.19-1.4-.35-2.1-.57l-2.09-.67c-1.39-.44-2.77-.92-4.14-1.39-1.37-.53-2.73-1.08-4.08-1.65-.67-.29-1.34-.56-2.01-.88l-1.98-.99-1.95-1.02c-.64-.35-1.27-.76-1.9-1.14-.63-.38-1.24-.78-1.85-1.19l-1.78-1.33c-1.18-.9-2.27-1.86-3.29-3.06l.89-1.08c1.01.7,2.25,1.36,3.46,1.9l1.86.81c.63.24,1.28.46,1.92.69.64.22,1.27.47,1.92.66l1.97.55,1.96.55c.66.17,1.33.29,2,.44,1.34.28,2.66.59,4,.84l4.05.62c2.69.49,5.43.61,8.14.94l2.04.21,2.05.11,4.1.22c2.73.2,5.47.17,8.21.19,2.74,0,5.48.08,8.22-.07l8.22-.31c2.74-.14,5.47-.41,8.21-.6l4.1-.32,2.05-.16,2.05-.23,8.18-.95c2.73-.32,5.46-.61,8.17-1.06l8.15-1.23c2.71-.43,5.44-.77,8.13-1.31,5.4-1,10.82-1.92,16.23-2.88l.24-.04.26.04,9.37,1.48,4.72.42,2.36.21c.79.08,1.57.14,2.36.13l4.73.08c.79,0,1.58.05,2.37.02l2.36-.14c1.57-.1,3.15-.16,4.72-.29l4.68-.62c1.57-.16,3.1-.54,4.64-.86l2.31-.49c.77-.15,1.51-.42,2.27-.62l2.26-.66,1.13-.33,1.1-.41,2.21-.82c.74-.27,1.47-.54,2.18-.89,1.41-.68,2.89-1.24,4.24-2.04l2.06-1.12c.68-.39,1.32-.83,1.99-1.24l.99-.63.95-.68c.62-.47,1.28-.89,1.87-1.4,1.2-.97,2.41-2.02,3.4-3.08l.91-.98.72,1.06c.3.44.65.91,1,1.35.36.44.71.89,1.09,1.32.74.87,1.53,1.7,2.35,2.5.4.41.83.79,1.26,1.16.43.38.85.76,1.31,1.1.46.34.88.73,1.36,1.03l1.41.95,1.48.83c.48.3,1.02.48,1.53.73l.77.35c.26.1.53.18.8.27.54.16,1.07.38,1.61.5l1.65.33c.55.12,1.09.09,1.64.14l.82.06c.28.01.58-.04.87-.05l1.75-.14.13,1.39Z" style="fill: #638cc8;"/>
      </g>
    </g>
  </g>
</svg>