<svg xmlns="http://www.w3.org/2000/svg" viewBox="0 0 452 138.97">
  <g>
    <g>
      <path d="M59.3,110.7c-4.17,0-8.29-.78-12.34-2.33-4.06-1.55-7.38-3.71-9.94-6.49h-.32v37.09H0V24.16h34.78v8.49h.33c3.09-3.52,6.84-6.2,11.22-8.01,4.38-1.82,8.64-2.72,12.82-2.72,6.3,0,11.86,1.28,16.67,3.85,4.81,2.56,8.82,5.93,12.02,10.1,3.21,4.16,5.63,8.87,7.29,14.1,1.66,5.24,2.49,10.58,2.49,16.03s-.83,11-2.49,16.36c-1.66,5.33-4.08,10.11-7.29,14.33-3.2,4.23-7.19,7.61-11.94,10.18-4.76,2.56-10.28,3.85-16.58,3.85Z"></path>
      <path d="M108.21,24.16h37.02v84.3h-37.02V24.16Z"></path>
      <path d="M211.3,89.38l-13.78,19.08h-41.67l32.54-43.28-30.29-41.02h41.99l12.18,17.63,12.02-17.63h40.71l-30.29,41.02,31.89,43.28h-42.31l-12.98-19.08Z"></path>
      <path d="M351.87,66.07c0,1.33-.03,2.68-.07,4.07-.06,1.38-.13,2.53-.23,3.45h-54.33c.1,1.43.59,2.71,1.46,3.84.86,1.13,1.93,2.1,3.22,2.91,1.28.82,2.71,1.44,4.3,1.84,1.58.41,3.19.61,4.83.61,3.28,0,6.01-.59,8.21-1.77,2.19-1.17,3.86-2.47,4.98-3.9l25.16,12.73c-3.58,5.83-8.77,10.44-15.57,13.81-6.81,3.38-14.7,5.06-23.71,5.06-5.84,0-11.51-.92-17.03-2.76-5.53-1.84-10.42-4.57-14.66-8.2-4.25-3.64-7.64-8.16-10.2-13.58-2.56-5.42-3.83-11.72-3.83-18.87,0-6.66,1.17-12.67,3.53-18.04,2.36-5.37,5.55-9.92,9.59-13.66,4.04-3.73,8.8-6.62,14.27-8.67,5.48-2.06,11.33-3.07,17.57-3.07s12.13,1.1,17.34,3.3c5.22,2.2,9.68,5.27,13.42,9.2,3.74,3.94,6.62,8.62,8.67,14.05,2.04,5.43,3.07,11.31,3.07,17.65Z"></path>
      <path d="M364.05,0h37.82v108.46h-37.82V0Z"></path>
      <path d="M413.54,70.7h38.46v37.48h-38.46v-37.48Z"></path>
    </g>
  </g>
</svg>